<?xml version="1.0" encoding="utf-8"?>
<!-- Generator: Adobe Illustrator 18.0.0, SVG Export Plug-In . SVG Version: 6.00 Build 0)  -->
<!DOCTYPE svg PUBLIC "-//W3C//DTD SVG 1.1//EN" "http://www.w3.org/Graphics/SVG/1.1/DTD/svg11.dtd">
<svg version="1.1" id="Icon_Set" xmlns="http://www.w3.org/2000/svg" xmlns:xlink="http://www.w3.org/1999/xlink" x="0px" y="0px"
	 viewBox="0 0 256 256" style="enable-background:new 0 0 256 256;" xml:space="preserve">
<style type="text/css">
	.st0{fill:#4C4372;}
	.st1{fill:#F0C48A;}
	.st2{fill:#FD919E;}
	.st3{fill:#D3E6F8;}
	.st4{fill:#A4CFF2;}
	.st5{fill:#FFFFFF;}
	.st6{fill:#7BABF1;}
	.st7{fill:#E8677D;}
</style>
<g>
	<g>
		<circle class="st1" cx="128" cy="128" r="103.5"/>
	</g>
	<g>
		<path class="st5" d="M128.409,46.054c-22.338,0-41.828,12.144-52.266,30.181c10.438,18.036,29.928,30.18,52.266,30.18
			s41.827-12.144,52.266-30.18C170.236,58.197,150.747,46.054,128.409,46.054z"/>
	</g>
	<g>
		<path class="st3" d="M128.409,46.054c-1.413,0-2.815,0.05-4.204,0.145c18.809,1.296,35.237,11.214,45.387,25.824
			c1.754,2.524,1.754,5.898,0,8.423c-10.149,14.611-26.578,24.529-45.387,25.824c1.389,0.096,2.791,0.145,4.204,0.145
			c22.338,0,41.827-12.144,52.266-30.18C170.236,58.197,150.747,46.054,128.409,46.054z"/>
	</g>
	<g>
		<circle class="st4" cx="128.409" cy="76.234" r="30.181"/>
	</g>
	<g>
		<circle class="st6" cx="128.409" cy="76.234" r="14.583"/>
	</g>
	<g>
		<path class="st0" d="M128.409,109.414c-22.532,0-43.554-12.138-54.862-31.677c-0.538-0.93-0.538-2.076,0-3.006
			c11.308-19.539,32.33-31.678,54.862-31.678c22.532,0,43.554,12.139,54.862,31.678c0.538,0.93,0.538,2.076,0,3.006
			C171.963,97.276,150.941,109.414,128.409,109.414z M79.641,76.234c10.429,16.81,28.954,27.18,48.769,27.18
			c19.813,0,38.339-10.37,48.769-27.18c-10.43-16.81-28.954-27.181-48.769-27.181S90.069,59.425,79.641,76.234z"/>
	</g>
	<g>
		<path class="st0" d="M128.409,109.414c-18.296,0-33.181-14.885-33.181-33.18c0-18.296,14.885-33.181,33.181-33.181
			s33.181,14.885,33.181,33.181C161.59,94.529,146.705,109.414,128.409,109.414z M128.409,49.054
			c-14.987,0-27.181,12.193-27.181,27.181s12.193,27.18,27.181,27.18s27.181-12.192,27.181-27.18S143.396,49.054,128.409,49.054z"/>
	</g>
	<g>
		<path class="st0" d="M128.409,93.817c-9.695,0-17.583-7.888-17.583-17.583c0-9.696,7.888-17.584,17.583-17.584
			s17.583,7.888,17.583,17.584C145.992,85.93,138.104,93.817,128.409,93.817z M128.409,64.65c-6.387,0-11.583,5.196-11.583,11.584
			c0,6.387,5.196,11.583,11.583,11.583s11.583-5.196,11.583-11.583C139.992,69.847,134.796,64.65,128.409,64.65z"/>
	</g>
	<g>
		<rect x="57.073" y="127.092" class="st4" width="141.855" height="82.854"/>
	</g>
	<g>
		<rect x="185.214" y="127.092" class="st6" width="13.714" height="82.854"/>
	</g>
	<g>
		<path class="st0" d="M198.928,212.946H57.073c-1.657,0-3-1.343-3-3v-82.854c0-1.657,1.343-3,3-3h141.855c1.657,0,3,1.343,3,3
			v82.854C201.928,211.604,200.585,212.946,198.928,212.946z M60.073,206.946h135.855v-76.854H60.073V206.946z"/>
	</g>
	<g>
		<g>
			<path class="st5" d="M128.409,196.907H71.604v-78.936h44.772c6.646,0,12.033,5.388,12.033,12.033V196.907z"/>
		</g>
		<g>
			<path class="st5" d="M185.214,196.907h-56.805v-66.903c0-6.646,5.388-12.033,12.032-12.033h44.773V196.907z"/>
		</g>
	</g>
	<g>
		<path class="st0" d="M116.092,147.186H84.215c-1.657,0-3-1.343-3-3s1.343-3,3-3h31.876c1.657,0,3,1.343,3,3
			S117.749,147.186,116.092,147.186z"/>
	</g>
	<g>
		<path class="st0" d="M116.092,133.909H84.215c-1.657,0-3-1.343-3-3s1.343-3,3-3h31.876c1.657,0,3,1.343,3,3
			S117.749,133.909,116.092,133.909z"/>
	</g>
	<g>
		<path class="st0" d="M116.092,160.462H84.215c-1.657,0-3-1.343-3-3s1.343-3,3-3h31.876c1.657,0,3,1.343,3,3
			S117.749,160.462,116.092,160.462z"/>
	</g>
	<g>
		<path class="st0" d="M116.092,173.738H84.215c-1.657,0-3-1.343-3-3s1.343-3,3-3h31.876c1.657,0,3,1.343,3,3
			S117.749,173.738,116.092,173.738z"/>
	</g>
	<g>
		<path class="st0" d="M116.092,187.016H84.215c-1.657,0-3-1.343-3-3s1.343-3,3-3h31.876c1.657,0,3,1.343,3,3
			S117.749,187.016,116.092,187.016z"/>
	</g>
	<g>
		<rect x="174.721" y="117.971" class="st3" width="10.493" height="78.937"/>
	</g>
	<g>
		<path class="st0" d="M128.409,199.907H71.604c-1.657,0-3-1.343-3-3v-78.937c0-1.657,1.343-3,3-3h44.772
			c8.289,0,15.033,6.744,15.033,15.033v66.903C131.409,198.564,130.066,199.907,128.409,199.907z M74.604,193.907h50.805v-63.903
			c0-4.98-4.052-9.033-9.033-9.033H74.604V193.907z"/>
	</g>
	<g>
		<path class="st0" d="M185.214,199.907h-56.805c-1.657,0-3-1.343-3-3v-66.903c0-8.289,6.743-15.033,15.032-15.033h44.772
			c1.657,0,3,1.343,3,3v78.937C188.214,198.564,186.871,199.907,185.214,199.907z M131.409,193.907h50.805v-72.937h-41.772
			c-4.98,0-9.032,4.053-9.032,9.033V193.907z"/>
	</g>
	<g>
		<path class="st0" d="M172.75,147.186h-31.877c-1.657,0-3-1.343-3-3s1.343-3,3-3h31.877c1.657,0,3,1.343,3,3
			S174.407,147.186,172.75,147.186z"/>
	</g>
	<g>
		<path class="st0" d="M172.75,160.462h-31.877c-1.657,0-3-1.343-3-3s1.343-3,3-3h31.877c1.657,0,3,1.343,3,3
			S174.407,160.462,172.75,160.462z"/>
	</g>
	<g>
		<path class="st0" d="M172.75,173.738h-31.877c-1.657,0-3-1.343-3-3s1.343-3,3-3h31.877c1.657,0,3,1.343,3,3
			S174.407,173.738,172.75,173.738z"/>
	</g>
	<g>
		<path class="st0" d="M172.75,187.016h-31.877c-1.657,0-3-1.343-3-3s1.343-3,3-3h31.877c1.657,0,3,1.343,3,3
			S174.407,187.016,172.75,187.016z"/>
	</g>
	<g>
		<path class="st0" d="M172.75,133.909h-31.877c-1.657,0-3-1.343-3-3s1.343-3,3-3h31.877c1.657,0,3,1.343,3,3
			S174.407,133.909,172.75,133.909z"/>
	</g>
</g>
</svg>
